<svg width="100" height="79" viewBox="0 0 165 130" fill="none" xmlns="http://www.w3.org/2000/svg">
<path d="M157.069 45.3704C156.799 45.28 156.279 45.1105 155.997 45.054C155.421 44.9184 154.891 44.8393 154.248 44.7602C152.34 44.5229 150.624 44.4777 148.694 44.4664C148.209 44.4664 147.735 44.489 147.238 44.489C134.776 44.489 123.285 51.5064 114.368 60.9082C108.171 67.4058 103.092 75.3611 99.5247 81.678C99.3441 81.8927 99.1861 82.13 99.0506 82.3786C94.8742 88.5485 89.6592 93.9613 83.6316 98.3571C77.7846 102.516 71.3618 105.126 64.9278 105.126C42.3637 105.126 24.6081 86.9326 24.6081 65.1118C24.6081 43.2911 42.9055 25.0978 64.9391 25.0978C79.0826 25.0978 92.6956 32.9401 99.4683 44.8167C100.529 46.749 102.098 48.3423 104.017 49.4272C105.925 50.5346 108.081 51.1222 110.271 51.1335C112.664 51.1335 114.82 49.9583 115.768 49.4949L115.993 49.3819L116.231 49.2011C118.872 47.4044 120.802 44.7376 121.66 41.6526C122.145 40.0932 122.281 38.4433 122.089 36.8161C121.886 35.1889 121.344 33.6294 120.497 32.2282C120.441 32.1717 120.441 32.1152 120.373 32.0474V31.9909C114.526 22.3066 106.32 14.2722 96.5109 8.64467C86.7244 3.00586 75.6286 0.0226004 64.3183 0C28.6717 0 0.000909323 29.132 0.000909323 64.5242C-0.0442415 72.9994 1.59248 81.3955 4.80948 89.2378C8.02647 97.0802 12.756 104.199 18.7385 110.2C24.721 116.2 31.821 120.946 39.6434 124.189C47.4658 127.421 55.8525 129.082 64.3183 129.06C86.747 129.06 107.087 112.324 119.651 95.0687L119.764 94.8314C120.407 93.8935 120.7 93.2494 121.4 92.029C123.68 88.2321 127.304 82.3221 130.453 78.1071C132.936 74.7848 136.153 72.0728 139.856 70.1856C143.558 68.2985 147.633 67.2815 151.787 67.225H153.311C153.683 67.2476 154.056 67.225 154.428 67.1911C156.257 66.9199 158.006 66.2419 159.53 65.1909C160.986 64.2643 162.205 62.9987 163.075 61.4958C163.944 59.9928 164.44 58.3091 164.519 56.5802V56.1847C164.644 53.8116 163.966 51.4612 162.623 49.5063C161.269 47.5513 159.316 46.0936 157.058 45.3704H157.069Z" fill="#F85A40"/>
</svg>
