<svg width="1920" height="1080" viewBox="0 0 1920 1080" fill="none" xmlns="http://www.w3.org/2000/svg">
  <g clip-path="url(#clip0_1_2)">
    <rect width="1920" height="1080" fill="white"/>
    <path d="M1374 339C1374 371.585 1347.58 398 1315 398C1282.42 398 1256 371.585 1256 339C1256 306.415 1282.42 280 1315 280C1347.58 280 1374 306.415 1374 339Z" fill="#2563eb" fill-opacity="0.1"/>
    <path d="M495 855L631 719M631 719L767 583M631 719L495 583M631 719L767 855" stroke="#2563eb" stroke-opacity="0.2" stroke-width="4"/>
    <path d="M1315 855L1451 719M1451 719L1587 583M1451 719L1315 583M1451 719L1587 855" stroke="#1e293b" stroke-opacity="0.2" stroke-width="4"/>
    <circle cx="225" cy="339" r="59" stroke="#2563eb" stroke-opacity="0.2" stroke-width="4"/>
    <circle cx="1725" cy="609" r="59" stroke="#1e293b" stroke-opacity="0.2" stroke-width="4"/>
    <path d="M854 339C854 371.585 827.585 398 795 398C762.415 398 736 371.585 736 339C736 306.415 762.415 280 795 280C827.585 280 854 306.415 854 339Z" fill="#1e293b" fill-opacity="0.1"/>
    <rect x="736" y="583" width="118" height="118" rx="20" stroke="#2563eb" stroke-opacity="0.2" stroke-width="4"/>
    <rect x="1256" y="583" width="118" height="118" rx="20" stroke="#1e293b" stroke-opacity="0.2" stroke-width="4"/>
  </g>
  <defs>
    <clipPath id="clip0_1_2">
      <rect width="1920" height="1080" fill="white"/>
    </clipPath>
  </defs>
</svg>